# xmcd CD database file
#
# Track frame offsets:
#	150
#	15236
#	31709
#	46231
#	63572
#	89291
#	107443
#	127222
#	144742
#	163041
#	185584
#	203417
#
# Disc length: 3073 seconds
#
# Revision: 3
# Processed by: cddbd v1.5.1PL0 Copyright (c) Steve Scherf et al.
# Submitted via: CDex 1.51
#
DISCID=990bff0c
DTITLE=Wolfgang Ambros - Singt Waits - Nach mir die Sintflut
DYEAR=1900
DGENRE=National Folk
TTITLE0=Samstag Nacht
TTITLE1=Durt bin i daham
TTITLE2=Heimatserenade
TTITLE3=Romeo verliert Bluat
TTITLE4=Es is vorbei
TTITLE5=Nach mir die Sintflut
TTITLE6=Die Sun geht boid auf
TTITLE7=Gross in Kagran
TTITLE8=Martina
TTITLE9=Weihnachtsgrüsse von Aner Hur aus Floridsdorf
TTITLE10=Verliab di ned
TTITLE11=Tom Traubert's Blues
EXTD=
EXTT0=
EXTT1=
EXTT2=
EXTT3=
EXTT4=
EXTT5=
EXTT6=
EXTT7=
EXTT8=
EXTT9=
EXTT10=
EXTT11=
PLAYORDER=
